<?xml version="1.0" standalone="no"?>
<!DOCTYPE svg PUBLIC "-//W3C//DTD SVG 20010904//EN"
 "http://www.w3.org/TR/2001/REC-SVG-20010904/DTD/svg10.dtd">
<svg version="1.0" xmlns="http://www.w3.org/2000/svg"
 width="370.000000pt" height="370.000000pt" viewBox="0 0 370.000000 370.000000"
 preserveAspectRatio="xMidYMid meet">
<metadata>
Created by potrace 1.11, written by Peter Selinger 2001-2013
</metadata>
<g transform="translate(0.000000,370.000000) scale(0.100000,-0.100000)"
fill="#000000" stroke="none">
<path d="M1655 3680 c-22 -11 -166 -109 -320 -217 -154 -108 -413 -288 -575
-401 -162 -113 -329 -229 -370 -258 -188 -132 -359 -244 -374 -244 -15 0 -16
-80 -16 -927 l0 -928 153 -74 c83 -41 310 -153 502 -248 193 -95 377 -180 410
-188 64 -17 363 -42 388 -32 11 4 -28 48 -132 150 -182 179 -422 411 -479 463
l-43 39 34 65 c134 256 248 483 245 486 -3 2 -171 35 -374 74 -203 38 -398 75
-434 83 l-64 13 129 33 c461 118 810 308 1076 586 127 132 218 262 306 437
l59 117 145 -77 c80 -42 153 -82 162 -88 16 -9 16 -14 -7 -66 -129 -291 -111
-530 52 -695 73 -74 156 -116 232 -117 l55 -1 50 100 c28 55 88 179 134 275
410 855 407 849 356 902 -14 15 -87 68 -163 117 -117 76 -646 418 -845 546
-153 98 -214 114 -292 75z"/>
<path d="M2983 2593 c-30 -65 -84 -179 -120 -253 -79 -165 -107 -230 -102
-234 2 -2 51 -32 109 -66 58 -35 197 -119 309 -187 113 -68 213 -123 223 -123
45 0 131 108 211 265 75 149 87 186 87 278 0 67 -3 84 -17 93 -23 14 -254 143
-403 224 -63 35 -138 76 -167 91 -29 16 -57 29 -63 29 -6 0 -36 -53 -67 -117z"/>
<path d="M2606 1815 c-55 -103 -112 -197 -128 -210 -35 -30 -124 -49 -191 -40
-72 9 -198 32 -219 40 -10 4 -18 5 -18 2 0 -5 112 -86 238 -172 40 -28 145
-100 235 -162 351 -243 444 -303 466 -303 35 0 157 128 235 247 90 138 157
281 159 340 l2 47 -265 158 c-274 165 -374 223 -400 233 -11 4 -40 -41 -114
-180z"/>
<path d="M1785 1628 c-96 -54 -355 -352 -355 -408 0 -16 315 -308 863 -800 57
-52 68 -53 138 -18 44 22 93 62 168 137 124 123 191 208 228 287 25 55 25 56
7 74 -18 18 -320 242 -603 448 -294 214 -405 292 -415 292 -6 0 -20 -6 -31
-12z"/>
<path d="M1264 1091 c-92 -61 -215 -193 -237 -253 -4 -13 18 -45 81 -115 253
-283 584 -653 615 -685 41 -44 55 -46 122 -14 152 72 363 266 353 324 -2 10
-88 96 -193 192 -104 95 -235 215 -290 265 -254 233 -362 325 -382 325 -6 0
-37 -18 -69 -39z"/>
</g>
</svg>
